<?xml version="1.0" encoding="UTF-8" standalone="no"?>
<!DOCTYPE svg PUBLIC "-//W3C//DTD SVG 1.1//EN"
 "http://www.w3.org/Graphics/SVG/1.1/DTD/svg11.dtd">
<!-- Generated by graphviz version 7.0.6 (20230106.0513)
 -->
<!-- Pages: 1 -->
<svg width="146pt" height="182pt"
 viewBox="0.00 0.00 146.01 182.01" xmlns="http://www.w3.org/2000/svg" xmlns:xlink="http://www.w3.org/1999/xlink">
<g id="graph0" class="graph" transform="scale(1 1) rotate(0) translate(4 178.01)">
<polygon fill="white" stroke="none" points="-4,4 -4,-178.01 142.01,-178.01 142.01,4 -4,4"/>
<!-- 1 -->
<g id="node1" class="node">
<title>1</title>
<ellipse fill="none" stroke="black" cx="27" cy="-25.15" rx="27" ry="18"/>
<text text-anchor="middle" x="27" y="-21.45" font-family="Times,serif" font-size="14.00">1</text>
</g>
<!-- 4 -->
<g id="node2" class="node">
<title>4</title>
<ellipse fill="none" stroke="black" cx="96.92" cy="-18" rx="27" ry="18"/>
<text text-anchor="middle" x="96.92" y="-14.3" font-family="Times,serif" font-size="14.00">4</text>
</g>
<!-- 1&#45;&gt;4 -->
<g id="edge1" class="edge">
<title>1&#45;&gt;4</title>
<path fill="none" stroke="black" d="M53.83,-22.4C55.39,-22.25 56.97,-22.08 58.55,-21.92"/>
<polygon fill="black" stroke="black" points="58.72,-25.42 68.31,-20.92 58,-18.46 58.72,-25.42"/>
</g>
<!-- 2 -->
<g id="node3" class="node">
<title>2</title>
<ellipse fill="none" stroke="black" cx="68.54" cy="-86.84" rx="27" ry="18"/>
<text text-anchor="middle" x="68.54" y="-83.14" font-family="Times,serif" font-size="14.00">2</text>
</g>
<!-- 1&#45;&gt;2 -->
<g id="edge2" class="edge">
<title>1&#45;&gt;2</title>
<path fill="none" stroke="black" d="M38.13,-41.68C42.14,-47.63 46.76,-54.49 51.17,-61.03"/>
<polygon fill="black" stroke="black" points="48.05,-62.67 56.54,-69.01 53.85,-58.76 48.05,-62.67"/>
</g>
<!-- 2&#45;&gt;4 -->
<g id="edge4" class="edge">
<title>2&#45;&gt;4</title>
<path fill="none" stroke="black" d="M75.85,-69.11C78.76,-62.07 82.16,-53.8 85.38,-45.99"/>
<polygon fill="black" stroke="black" points="88.59,-47.41 89.16,-36.83 82.11,-44.74 88.59,-47.41"/>
</g>
<!-- 3 -->
<g id="node4" class="node">
<title>3</title>
<ellipse fill="none" stroke="black" cx="41.18" cy="-156.01" rx="27" ry="18"/>
<text text-anchor="middle" x="41.18" y="-152.31" font-family="Times,serif" font-size="14.00">3</text>
</g>
<!-- 2&#45;&gt;3 -->
<g id="edge3" class="edge">
<title>2&#45;&gt;3</title>
<path fill="none" stroke="black" d="M61.5,-104.65C58.7,-111.73 55.41,-120.03 52.31,-127.88"/>
<polygon fill="black" stroke="black" points="49.09,-126.5 48.67,-137.09 55.6,-129.08 49.09,-126.5"/>
</g>
<!-- 5 -->
<g id="node5" class="node">
<title>5</title>
<ellipse fill="none" stroke="black" cx="111.01" cy="-148.01" rx="27" ry="18"/>
<text text-anchor="middle" x="111.01" y="-144.31" font-family="Times,serif" font-size="14.00">5</text>
</g>
<!-- 2&#45;&gt;5 -->
<g id="edge5" class="edge">
<title>2&#45;&gt;5</title>
<path fill="none" stroke="black" d="M80.15,-103.55C84.08,-109.22 88.57,-115.69 92.89,-121.9"/>
<polygon fill="black" stroke="black" points="89.98,-123.85 98.56,-130.07 95.73,-119.86 89.98,-123.85"/>
</g>
<!-- 3&#45;&gt;5 -->
<g id="edge6" class="edge">
<title>3&#45;&gt;5</title>
<path fill="none" stroke="black" d="M67.98,-152.94C69.53,-152.76 71.11,-152.58 72.7,-152.4"/>
<polygon fill="black" stroke="black" points="72.9,-155.9 82.44,-151.28 72.1,-148.94 72.9,-155.9"/>
</g>
</g>
</svg>
